<?xml version="1.0" encoding="UTF-8" standalone="no" ?>
<!DOCTYPE svg PUBLIC "-//W3C//DTD SVG 1.1//EN" "http://www.w3.org/Graphics/SVG/1.1/DTD/svg11.dtd">
<svg xmlns="http://www.w3.org/2000/svg" xmlns:xlink="http://www.w3.org/1999/xlink" version="1.1" width="220" height="350" viewBox="0 0 220 350" xml:space="preserve">
<desc>Created with Fabric.js 3.6.6</desc>
<defs>
</defs>
<g transform="matrix(0.04 0 0 -0.04 110.14 175.17)"  >
<path style="stroke: rgb(255,0,0); stroke-opacity: 0; stroke-width: 0; stroke-dasharray: ; stroke-linecap: butt; stroke-dashoffset: 0; stroke-linejoin: miter; stroke-miterlimit: 4; fill: rgb(0,0,0); fill-rule: nonzero; opacity: 1;" vector-effect="non-scaling-stroke"  transform=" translate(-10030, -6335.5)" d="M 8510 10653 c -22 -97 -125 -502 -220 -863 l -48 -185 l 13 -465 c 8 -256 17 -598 21 -760 l 6 -295 l -65 -255 c -37 -140 -69 -271 -72 -290 c -3 -19 -12 -59 -20 -88 l -13 -53 l 89 -44 c 49 -25 89 -43 89 -41 c 0 2 202 -94 449 -214 c 248 -120 453 -215 456 -211 c 4 3 -3 -15 -16 -41 l -23 -48 l -943 0 c -519 0 -943 -3 -943 -7 c 0 -8 85 -161 227 -408 c 44 -77 133 -237 198 -355 c 65 -118 169 -304 231 -412 c 63 -109 155 -273 205 -365 c 50 -93 166 -301 258 -463 c 92 -162 210 -371 261 -465 c 52 -93 145 -259 207 -368 c 63 -109 117 -206 120 -215 c 4 -10 70 -129 148 -267 c 78 -137 184 -326 235 -420 c 51 -93 134 -242 185 -330 c 90 -157 137 -241 345 -617 l 103 -187 l 60 102 c 32 56 104 183 160 282 c 55 99 151 266 212 370 c 62 105 143 244 180 310 c 108 191 303 532 365 635 c 31 52 59 103 63 113 c 4 10 70 125 146 255 c 77 131 197 341 269 467 c 71 127 163 286 204 355 c 41 69 108 184 148 255 c 173 305 344 602 360 625 c 9 14 61 104 115 200 c 54 96 163 288 243 425 c 79 138 162 283 184 324 c 21 40 50 91 64 112 c 13 21 24 41 24 44 c 0 3 -436 5 -970 5 l -970 0 l -20 40 c -11 21 -20 41 -20 43 c 0 2 21 12 47 22 c 26 10 189 88 363 172 c 279 137 392 190 613 291 l 59 27 l -7 40 c -4 22 -9 49 -10 60 c -2 11 -4 20 -5 20 c -1 0 -4 11 -6 25 c -3 14 -36 145 -74 292 l -70 267 l 21 754 l 21 754 l -124 464 c -69 255 -135 510 -148 567 c -13 56 -26 102 -29 102 c -3 0 -18 -25 -33 -54 c -15 -30 -105 -161 -199 -293 c -95 -131 -235 -326 -312 -433 c -77 -107 -153 -209 -167 -226 c -15 -18 -56 -85 -90 -150 c -146 -278 -224 -416 -236 -421 c -12 -5 -152 30 -189 47 c -43 20 -163 41 -233 42 c -72 0 -189 -22 -247 -47 c -36 -15 -174 -49 -180 -44 c -8 8 -174 331 -227 440 c -30 64 -65 127 -78 141 c -69 80 -628 842 -672 918 c -29 49 -56 90 -60 90 c -3 0 -16 -44 -28 -97 z m 198 -420 c 237 -454 272 -527 267 -565 c -3 -26 -167 -754 -179 -793 c -3 -11 -62 80 -191 295 c -54 91 -135 226 -181 302 l -83 136 l 89 343 c 49 189 92 355 94 369 c 11 58 39 180 41 180 c 2 0 66 -120 143 -267 z m 2746 182 c 8 -33 18 -76 21 -95 c 3 -19 47 -186 96 -370 c 68 -251 88 -339 81 -355 c -14 -30 -370 -623 -404 -673 c -17 -24 -31 -42 -33 -40 c -8 9 -178 740 -181 783 c -5 48 0 60 129 305 c 207 396 269 511 272 508 c 2 -2 10 -30 19 -63 z m -2499 -407 c 33 -46 87 -120 122 -165 c 35 -45 63 -87 63 -93 c 0 -7 -14 -10 -37 -8 c -36 3 -40 7 -78 78 c -47 88 -135 270 -131 270 c 1 0 29 -37 61 -82 z m 2137 23 c -8 -4 -13 -10 -12 -12 c 1 -2 -5 -17 -14 -34 c -9 -16 -40 -77 -70 -135 c -49 -97 -56 -105 -85 -108 c -17 -2 -31 -1 -31 3 c 0 13 205 295 215 295 c 5 0 4 -4 -3 -9 z m -1864 -401 c 7 -12 14 -71 18 -142 l 5 -123 l -27 50 c -15 28 -47 92 -70 143 l -43 92 l 52 0 c 41 0 55 -4 65 -20 z m 1659 8 c -17 -45 -121 -258 -123 -255 c -7 7 16 213 27 240 c 10 24 17 27 56 27 c 32 0 44 -4 40 -12 z m -1588 -603 c 1 -10 -150 -90 -163 -87 c -3 1 -59 -25 -123 -58 c -65 -33 -121 -60 -124 -60 c -3 0 7 55 22 122 c 16 67 26 125 23 129 c -2 4 0 10 6 14 c 5 3 10 16 10 28 c 0 12 21 116 47 232 l 47 210 l 127 -260 c 70 -143 128 -265 128 -270 z m 1715 295 c 26 -113 61 -266 77 -340 c 17 -74 33 -143 36 -153 c 4 -14 -19 -6 -104 36 c -59 30 -155 76 -213 102 c -58 26 -106 49 -108 50 c -2 2 54 120 124 264 c 70 144 131 258 135 254 c 3 -4 28 -100 53 -213 z m -2436 -292 c 95 -157 172 -289 172 -293 c 0 -8 -371 -437 -375 -433 c -1 2 -7 226 -14 498 c -6 272 -14 522 -17 555 l -5 60 l 34 -50 c 18 -27 111 -179 205 -337 z m 3068 -179 c -9 -299 -18 -544 -19 -546 c -4 -4 -369 420 -370 431 c -1 14 398 677 401 666 c 2 -5 -4 -253 -12 -551 z m -991 396 c -7 -71 -18 -142 -24 -158 l -11 -27 l -50 25 l -51 26 l 34 62 c 19 34 51 95 71 136 c 21 40 39 71 41 70 c 1 -2 -3 -62 -10 -134 z m -1237 0 c 34 -69 62 -127 62 -130 c 0 -6 -90 -58 -94 -54 c -1 2 -8 19 -16 37 c -13 32 -30 272 -20 272 c 3 0 33 -56 68 -125 z m 603 -627 c 1 -293 4 -599 8 -680 l 6 -147 l 160 -104 c 88 -56 202 -129 252 -162 c 64 -41 91 -65 88 -75 c -5 -17 -223 -914 -251 -1033 c -15 -64 -20 -76 -30 -63 c -10 14 -44 16 -249 16 c -214 0 -239 -2 -250 -17 c -15 -21 -10 -40 -94 312 c -33 138 -89 371 -125 519 c -37 147 -66 272 -66 276 c 0 5 115 82 255 171 l 255 163 l 0 678 c 0 671 0 678 20 678 c 20 0 20 -7 21 -532 z m -303 366 c -56 -69 -105 -127 -110 -130 c -4 -3 -8 41 -8 98 l 0 103 l 98 26 c 53 15 103 27 110 28 c 7 0 -33 -56 -90 -125 z m 582 97 l 105 -28 l 3 -109 c 2 -93 1 -107 -11 -94 c -7 8 -56 67 -107 130 c -52 63 -99 118 -104 122 c -19 13 5 9 114 -21 z m -410 -543 l -1 -503 l -50 120 c -28 66 -91 214 -141 328 c -49 115 -88 212 -86 216 c 4 10 271 341 275 341 c 2 0 3 -226 3 -502 z m 383 313 l 125 -154 l -33 -76 c -18 -42 -58 -134 -90 -206 c -31 -71 -58 -137 -60 -145 c -2 -8 -24 -62 -49 -120 l -46 -105 l 0 495 c 0 424 2 492 14 480 c 8 -8 70 -84 139 -169 z m -773 92 l 0 -68 l -34 50 l -34 50 l 32 17 c 17 9 32 17 34 18 c 1 0 2 -30 2 -67 z m 1041 51 l 30 -15 l -22 -37 c -50 -83 -49 -83 -49 -4 c 0 39 2 72 5 72 c 4 0 19 -7 36 -16 z m -1136 -149 c 30 -48 54 -88 53 -89 c -2 -1 -109 1 -238 3 l -235 4 l 180 87 c 99 48 181 86 182 85 c 2 0 27 -41 58 -90 z m 1583 -82 c -13 -1 -118 -4 -234 -5 l -212 -3 l 34 52 c 18 29 45 71 59 93 l 25 40 l 176 -88 c 115 -57 167 -88 152 -89 z m -1712 -103 l 243 0 l 21 -47 c 12 -27 73 -169 137 -318 c 63 -148 119 -278 124 -287 c 5 -10 6 -18 3 -18 c -6 0 -409 314 -432 337 c -7 7 -75 61 -150 120 c -75 59 -171 134 -212 166 l -75 60 l 49 -7 c 27 -3 158 -6 292 -6 z m 1768 -8 c -22 -18 -255 -202 -626 -494 c -117 -93 -216 -168 -220 -168 c -3 0 0 12 7 28 c 14 28 248 565 268 614 l 11 28 l 261 3 c 143 1 274 3 290 4 c 30 2 30 2 9 -15 z m -2179 -407 c 47 -197 84 -360 82 -361 c -4 -4 -379 -75 -382 -72 c -1 2 -44 66 -94 144 c -110 170 -111 180 -43 256 c 27 29 70 80 96 113 c 62 77 249 285 253 282 c 1 -2 41 -165 88 -362 z m 2418 308 c 30 -32 106 -119 167 -193 c 62 -74 128 -151 147 -171 c 30 -32 34 -41 28 -69 c -6 -27 -157 -276 -184 -303 c -4 -4 -93 9 -197 29 l -190 37 l 86 363 c 47 200 86 364 87 364 c 1 0 26 -26 56 -57 z m -2073 -217 c 140 -110 329 -258 419 -328 l 164 -129 l -294 2 c -162 2 -332 5 -378 8 l -84 6 l -44 195 c -24 107 -57 258 -74 335 c -18 77 -34 147 -37 155 c -7 18 3 11 328 -244 z m 1881 114 c -18 -73 -33 -144 -35 -158 c -2 -15 -22 -111 -46 -214 l -43 -187 l -81 -3 c -45 -2 -214 -5 -376 -6 c -283 -2 -294 -1 -273 15 c 12 10 153 122 314 248 c 161 127 354 278 429 336 c 74 59 137 105 138 104 c 2 -2 -10 -63 -27 -135 z m -2671 -588 l 61 -94 l -43 -37 c -142 -124 -183 -159 -185 -157 c -1 1 20 87 47 191 c 28 105 50 192 50 194 c 0 8 7 -3 70 -97 z m 3340 -301 c 0 -2 -37 30 -82 70 c -46 41 -99 88 -119 105 l -35 30 l 64 100 l 65 99 l 53 -200 c 29 -110 54 -202 54 -204 z m -2639 121 c 53 -59 96 -108 94 -110 c -1 -2 -76 23 -166 56 c -90 32 -199 69 -241 82 c -43 13 -75 26 -72 29 c 9 10 206 49 249 50 c 39 1 43 -3 136 -107 z m 536 102 l 121 -7 l -172 -110 c -94 -60 -183 -117 -197 -125 c -26 -15 -27 -15 -60 24 c -30 35 -76 86 -173 192 l -30 32 l 195 0 c 108 0 250 -3 316 -6 z m 1186 -7 c -15 -25 -217 -247 -225 -247 c -4 0 -71 42 -150 93 c -79 51 -164 107 -191 123 l -47 29 l 77 6 c 43 3 183 6 311 7 c 191 2 232 0 225 -11 z m 304 -9 c 68 -13 123 -26 123 -29 c 0 -3 -53 -23 -117 -44 c -65 -21 -172 -58 -237 -82 c -66 -23 -121 -41 -124 -39 c -2 2 40 52 93 110 c 65 71 104 106 119 106 c 11 0 76 -10 143 -22 z m -2337 -408 c 134 -162 250 -303 258 -313 c 9 -9 -83 31 -204 89 c -120 59 -253 121 -294 139 c -41 18 -132 61 -203 94 l -127 61 l 147 130 c 139 122 149 129 164 112 c 8 -9 125 -150 259 -312 z m 2803 203 c 78 -69 143 -129 144 -132 c 2 -6 -77 -44 -397 -192 c -85 -39 -217 -102 -293 -141 c -77 -38 -137 -65 -136 -60 c 4 10 532 650 537 651 c 2 1 67 -56 145 -126 z m -2669 -11 c 5 -9 38 -59 73 -110 c 54 -80 69 -112 99 -214 c 19 -66 34 -121 32 -123 c -3 -2 -413 490 -446 535 c -10 14 14 8 110 -26 c 69 -25 127 -52 132 -62 z m 2349 76 c -11 -13 -109 -131 -218 -263 c -189 -230 -234 -282 -223 -260 c 3 6 20 62 38 125 c 28 100 41 127 96 207 c 35 51 64 97 64 102 c 0 17 31 34 132 72 c 123 45 139 48 111 17 z m -2118 -147 l 50 -19 l -40 -16 l -40 -17 l -27 33 c -46 55 -41 57 57 19 z m 1719 -8 c -15 -21 -28 -39 -29 -40 c -3 -6 -75 21 -75 28 c 0 6 102 46 124 48 c 4 1 -4 -16 -20 -36 z m -109 -117 c 30 -13 35 -19 30 -38 c -3 -13 -21 -73 -38 -135 l -33 -112 l -45 168 l -45 169 l 47 -19 c 27 -10 64 -25 84 -33 z m -1471 -83 c -19 -71 -37 -140 -41 -155 c -3 -16 -9 -28 -13 -28 c -6 0 -72 224 -72 244 c 1 10 118 63 144 65 c 14 1 12 -16 -18 -126 z m 1329 -178 c 2 -16 14 -68 27 -114 l 23 -83 l -148 -219 c -81 -121 -149 -218 -151 -217 c -1 2 19 91 46 198 c 26 107 72 293 101 414 l 53 218 l 23 -83 c 12 -46 24 -97 26 -114 z m -1182 -5 c 23 -96 66 -276 95 -399 c 30 -123 53 -225 52 -226 c -7 -7 -288 426 -288 443 c 0 11 11 62 23 114 c 13 51 32 127 42 168 c 18 78 27 101 31 85 c 2 -6 22 -89 45 -185 z m -97 -615 c 31 -88 82 -229 114 -313 l 56 -153 l 229 -225 l 228 -225 l 62 58 c 35 32 144 133 243 225 l 180 167 l 71 198 c 39 109 97 271 128 361 c 32 89 59 161 60 160 c 3 -3 63 -235 247 -943 c 38 -148 71 -281 73 -295 c 2 -14 7 -39 10 -55 c 7 -30 6 -31 -122 -102 c -70 -39 -200 -109 -288 -156 c -177 -93 -347 -185 -521 -283 c -64 -35 -121 -64 -127 -64 c -6 0 -74 35 -151 79 c -78 43 -224 122 -326 176 c -200 106 -594 316 -597 319 c -1 1 2 18 7 37 c 5 19 12 50 15 69 c 6 36 301 1183 312 1210 c 6 16 7 12 97 -245 z m -264 220 c 0 -3 -11 -28 -25 -55 l -25 -50 l -729 -2 l -729 -3 l 66 -120 c 36 -66 140 -253 232 -415 c 92 -162 202 -360 245 -440 c 43 -80 128 -233 190 -340 c 161 -282 227 -400 229 -413 c 1 -7 13 -30 28 -52 c 24 -38 168 -293 336 -595 c 42 -74 159 -283 260 -465 c 102 -181 196 -352 210 -380 c 13 -27 66 -122 117 -210 c 51 -88 141 -248 200 -355 c 59 -107 146 -264 192 -348 l 86 -154 l 52 89 c 28 48 97 170 153 270 c 56 100 141 249 188 330 c 47 81 131 227 186 323 c 56 96 180 312 276 480 c 97 168 184 322 194 343 c 11 21 61 109 112 195 c 123 209 286 494 310 540 c 10 20 59 107 109 192 c 50 85 142 245 205 355 c 63 110 175 306 250 435 c 74 129 173 303 220 385 c 47 83 111 195 143 250 l 57 100 l -742 3 l -742 2 l -27 55 l -27 55 l 866 0 l 866 0 l -38 -67 c -21 -38 -77 -133 -124 -213 c -48 -80 -122 -208 -165 -285 c -92 -166 -315 -552 -373 -647 c -22 -36 -38 -69 -35 -72 c 4 -3 1 -6 -5 -6 c -7 0 -12 -6 -12 -13 c 0 -7 -30 -62 -66 -122 c -36 -61 -134 -229 -217 -375 c -83 -146 -189 -330 -235 -410 c -47 -80 -139 -239 -205 -355 c -66 -115 -176 -307 -245 -425 c -68 -118 -239 -415 -379 -660 c -140 -245 -263 -457 -274 -471 c -10 -15 -23 -39 -29 -55 c -20 -52 -234 -404 -241 -397 c -11 12 -195 335 -202 356 c -4 11 -72 132 -151 270 c -79 139 -196 349 -261 467 c -65 118 -128 231 -140 250 c -31 50 -192 336 -297 528 c -49 89 -139 251 -202 360 c -62 108 -154 271 -204 362 c -49 91 -136 246 -192 345 c -57 99 -136 241 -178 315 c -300 539 -483 867 -598 1071 c -74 129 -134 238 -134 242 c 0 4 376 7 835 7 c 459 0 835 -2 835 -5 z m 1404 -335 c -35 -96 -70 -187 -77 -202 l -12 -27 l -33 48 l -33 48 l 107 157 c 58 87 107 156 109 154 c 2 -2 -26 -82 -61 -178 z m -949 15 l 106 -155 l -32 -46 c -24 -35 -34 -43 -40 -32 c -4 8 -35 86 -68 174 c -32 87 -64 171 -70 187 c -6 15 -9 27 -6 27 c 2 0 51 -70 110 -155 z m -555 118 c 0 -5 -61 -125 -135 -268 c -74 -143 -201 -390 -281 -550 l -147 -290 l 13 -60 c 28 -130 42 -150 -198 275 c -67 118 -121 219 -121 224 c 0 5 -3 12 -8 15 c -4 3 -20 29 -34 56 c -14 28 -91 167 -172 311 c -80 143 -149 268 -153 277 c -6 16 40 17 615 17 c 342 0 621 -3 621 -7 z m 3270 1 c 0 -8 -64 -122 -242 -426 c -76 -130 -138 -240 -138 -243 c 0 -4 -49 -91 -109 -193 c -59 -103 -139 -240 -176 -305 c -37 -65 -69 -116 -71 -114 c -3 2 5 42 15 87 l 20 84 l -173 340 c -95 188 -224 439 -285 559 l -112 217 l 635 0 c 350 0 636 -3 636 -6 z m -1179 -374 c 76 -151 188 -371 249 -487 l 111 -213 l -48 0 c -26 0 -91 3 -144 6 l -96 7 l -53 206 c -49 190 -73 287 -86 351 c -4 22 -106 425 -120 475 c -10 38 48 -71 187 -345 z m -2045 129 c -30 -118 -58 -227 -61 -244 c -3 -16 -7 -34 -9 -40 c -1 -5 -6 -26 -10 -45 c -6 -28 -70 -276 -117 -451 l -9 -37 l -136 -7 c -74 -4 -137 -5 -140 -2 c -3 3 57 126 134 274 c 76 147 197 382 267 521 c 70 139 129 251 132 249 c 2 -2 -21 -100 -51 -218 z m 1173 -1 c 17 -20 17 -22 0 -42 c -9 -12 -61 -76 -114 -144 c -54 -68 -101 -122 -105 -120 c -7 3 -125 150 -194 241 c -26 34 -28 40 -16 62 l 13 25 l 200 0 c 192 0 199 -1 216 -22 z m 98 -138 c 41 -50 39 -54 -39 -82 c -40 -14 -82 -29 -92 -34 c -13 -5 2 21 39 69 c 33 42 62 77 65 76 c 3 0 15 -13 27 -29 z m -538 -47 c 28 -36 50 -68 48 -70 c -5 -4 -150 47 -161 57 c -8 8 40 80 54 80 c 4 0 31 -30 59 -67 z m 451 -156 c 0 -2 -43 -43 -96 -91 l -95 -88 l 3 52 l 3 53 l 85 37 c 83 37 100 43 100 37 z m -359 -38 l 79 -32 l 0 -53 c 0 -30 -1 -54 -3 -54 c -1 0 -40 38 -87 85 c -47 47 -81 85 -77 85 c 5 0 44 -14 88 -31 z m -885 -711 c 71 -95 226 -301 344 -457 c 118 -156 224 -296 234 -310 l 20 -26 l -30 24 c -16 14 -99 95 -185 180 c -183 184 -556 549 -686 674 l -92 87 l 133 0 l 133 0 l 129 -172 z m 2341 85 c -110 -104 -473 -460 -682 -668 c -240 -240 -266 -260 -151 -115 c 34 42 194 254 356 472 l 295 397 l 137 0 l 136 1 l -91 -87 z m -389 -41 c -14 -15 -230 -300 -479 -633 l -454 -605 l -35 45 c -116 150 -919 1221 -915 1221 c 10 0 149 -72 280 -145 c 172 -96 358 -195 532 -285 l 143 -74 l 122 64 c 68 35 213 113 323 174 c 110 60 268 146 350 192 c 83 45 152 80 154 78 c 3 -2 -7 -17 -21 -32 z m -1754 -580 c 333 -327 606 -596 606 -600 c 0 -11 -213 -777 -217 -782 c -6 -6 -2 -13 -176 305 c -82 148 -195 351 -252 450 c -56 99 -135 241 -175 315 c -92 170 -207 377 -278 499 c -50 85 -59 111 -92 253 c -20 87 -34 157 -29 156 c 4 -2 280 -270 613 -596 z m 2252 571 c -3 -10 -18 -77 -34 -149 c -28 -126 -33 -138 -109 -265 c -44 -74 -115 -197 -158 -274 c -126 -225 -271 -479 -360 -630 c -45 -77 -137 -239 -205 -360 c -160 -286 -146 -267 -160 -214 c -7 24 -47 172 -90 329 c -42 157 -83 309 -91 338 l -13 53 l 154 154 c 297 297 1055 1034 1063 1035 c 5 0 6 -8 3 -17 z m -1480 -1330 l 51 -60 l 21 32 c 12 17 37 45 55 63 l 34 33 l 6 -437 c 4 -241 7 -508 7 -594 l 0 -157 l -63 -109 c -35 -60 -68 -117 -74 -128 c -9 -16 -19 -2 -73 95 l -63 112 l 13 609 c 9 427 17 607 24 605 c 6 -2 34 -31 62 -64 z m 274 -236 c 0 -13 25 -115 55 -228 c 78 -285 77 -251 11 -361 c -31 -52 -56 -99 -56 -106 c 0 -7 -4 -12 -8 -12 c -13 0 -22 208 -22 487 c 0 155 4 243 10 243 c 6 0 10 -10 10 -23 z m -444 -234 c -9 -360 -17 -503 -27 -503 c -5 0 -9 5 -9 12 c 0 6 -25 56 -56 110 l -55 98 l 65 239 c 36 131 66 248 66 260 c 0 11 5 21 11 21 c 8 0 10 -66 5 -237 z" stroke-linecap="round" />
</g>
</svg>